<svg width="16" height="9" viewBox="0 0 16 9" fill="none" xmlns="http://www.w3.org/2000/svg">
<path d="M0.933317 8.59994C0.688872 8.3555 0.56665 8.04439 0.56665 7.66661C0.56665 7.28883 0.688872 6.97772 0.933317 6.73328L7.06665 0.599943C7.19998 0.466609 7.34443 0.372387 7.49998 0.317276C7.65554 0.262165 7.82221 0.234165 7.99998 0.233276C8.17776 0.233276 8.3502 0.266609 8.51732 0.333276C8.68443 0.399943 8.82309 0.488831 8.93332 0.599943L15.0666 6.73328C15.3111 6.97772 15.4333 7.28883 15.4333 7.66661C15.4333 8.04439 15.3111 8.3555 15.0666 8.59994C14.8222 8.84439 14.5111 8.96661 14.1333 8.96661C13.7555 8.96661 13.4444 8.84439 13.2 8.59994L7.99998 3.39994L2.79998 8.59994C2.55554 8.84439 2.24443 8.96661 1.86665 8.96661C1.48887 8.96661 1.17776 8.84439 0.933317 8.59994Z" fill="white"/>
</svg>
