<svg width="76" height="60" viewBox="0 0 76 60" fill="none" xmlns="http://www.w3.org/2000/svg">
<path d="M75.9998 30C75.9998 32.0551 75.7906 34.0623 75.3899 36.0015C74.9612 38.0893 74.3104 40.0965 73.4657 42.003C73.3049 42.3707 73.1365 42.7334 72.9578 43.091C72.1054 44.8287 71.0821 46.4733 69.9209 48.0045C68.9919 49.221 67.9762 50.3618 66.8763 51.4246C65.9244 52.3514 64.9112 53.2127 63.8393 54.0035C62.8696 54.7238 61.8539 55.3912 60.7948 55.9906C58.8884 57.0786 56.8544 57.9676 54.7132 58.63C52.766 59.2344 50.7295 59.6499 48.6368 59.8564C47.6389 59.9521 46.6232 60.005 45.5973 60.005H21.2737C20.207 60.005 19.1836 59.8237 18.2342 59.4913C15.6439 58.5897 13.5895 56.5623 12.6784 54.006C12.3365 53.0692 12.1578 52.0568 12.1578 51.0065V42.0081H45.5973C46.6488 42.0081 47.667 41.8771 48.6368 41.6303C51.0255 41.0233 53.131 39.7188 54.7132 37.9458C55.2466 37.3489 55.7213 36.6991 56.1245 36.0065C57.1606 34.2411 57.7527 32.1936 57.7527 30.005C57.7527 27.8165 57.1606 25.769 56.1245 24.0035C55.7213 23.3109 55.244 22.6612 54.7132 22.0643C53.131 20.2938 51.0255 18.9893 48.6368 18.3798C47.667 18.133 46.6462 18.002 45.5973 18.002H9.12088C8.05668 18.002 7.03075 17.8232 6.08139 17.4882C3.49106 16.5892 1.43666 14.5643 0.523029 12.0055C0.186158 11.0687 0.00241089 10.0588 0.00241089 9.00604V0H45.605C46.6309 0 47.6466 0.0503694 48.6445 0.14859C50.7397 0.355104 52.7737 0.770651 54.7209 1.37508C56.8595 2.03744 58.896 2.92646 60.8024 4.01444C61.859 4.61887 62.8747 5.28123 63.847 6.00151C64.9189 6.79483 65.9295 7.65615 66.8839 8.58042C67.9839 9.6407 69.0021 10.7866 69.9285 12.003C71.0948 13.5343 72.1131 15.1738 72.9655 16.9115C73.1441 17.2717 73.3125 17.6318 73.4733 17.9995C74.3181 19.906 74.9688 21.9132 75.3976 24.001C75.7982 25.9402 76.0075 27.9449 76.0075 30.0025L75.9998 30Z" fill="#6B63FF"/>
</svg>
