<svg width="93" height="93" viewBox="0 0 93 93" fill="none" xmlns="http://www.w3.org/2000/svg">
<circle cx="46.5" cy="46.5" r="46.5" fill="#6B63FF" fill-opacity="0.15"/>
<path d="M51.2419 50.3255C51.669 51.0498 51.9286 51.8818 51.9286 52.7791C51.9286 55.4806 49.7239 57.6732 47 57.6732C44.2761 57.6732 42.0714 55.4806 42.0714 52.7791C42.0714 50.0775 44.2761 47.8849 47 47.8849C47.2464 47.8849 47.4797 47.9208 47.7163 47.9567L60.9577 31.5352L62.042 32.2106L51.2419 50.3255ZM47 32.2628C49.116 32.2628 51.1466 32.6119 53.0589 33.2318C53.2034 33.2775 54.7017 33.5385 55.2669 32.2628C55.8024 31.0523 54.6984 30.3214 54.2417 30.1681C51.9614 29.4144 49.5333 29 47 29C34.2974 29 24 39.2255 24 51.8394C24 53.9504 24.3121 55.9864 24.8543 57.9277C24.8543 57.9277 25.8006 59.3666 27.2364 58.6292C28.4226 58.0158 28.0316 57.1577 27.9297 56.7662C27.5091 55.1902 27.2857 53.5425 27.2857 51.8394C27.2857 41.0429 36.1276 32.2628 47 32.2628ZM63.2249 38.2271C62.249 39.1961 62.9949 40.4393 63.0836 40.5698C65.3606 43.7608 66.7143 47.6435 66.7143 51.8394C66.7143 53.6992 66.4449 55.4969 65.9586 57.2001C65.8863 57.4448 65.9619 58.7369 67.0231 58.9489C68.6364 59.2752 69.1457 57.931 69.1457 57.931C69.6879 55.9864 70 53.9504 70 51.8394C70 46.8212 68.3703 42.1848 65.6037 38.4229C65.3047 38.015 63.9477 37.506 63.2249 38.2271Z" fill="#6B63FF"/>
</svg>
