<svg width="93" height="93" viewBox="0 0 93 93" fill="none" xmlns="http://www.w3.org/2000/svg">
<circle cx="46.5" cy="46.5" r="46.5" fill="#6B63FF" fill-opacity="0.15"/>
<path fill-rule="evenodd" clip-rule="evenodd" d="M45.4021 24.0916C45.2875 24.1402 44.7248 24.5864 44.1516 25.0828C41.3797 27.484 38.1128 29.1231 34.6169 29.8668C33.0669 30.1965 31.8997 30.3408 29.9757 30.4405C28.3641 30.5241 27.9972 30.6197 27.599 31.0598C27.1638 31.5409 27.1235 31.9105 27.1187 35.4725C27.1162 37.3452 27.0776 38.893 27.0329 38.9122C26.8933 38.9718 27.2271 45.0362 27.4859 47.1423C28.5816 56.0624 32.7558 62.491 40.1286 66.6132C42.0612 67.6937 44.9804 68.8993 45.871 68.9848C46.3841 69.034 46.5805 68.9849 47.7467 68.5159C54.6438 65.7417 59.1454 61.8813 61.8047 56.4601C62.5856 54.8681 63.0433 53.628 63.5753 51.6632C64.7563 47.3004 65.1532 42.612 64.9487 35.4384C64.8906 33.4012 64.7997 31.6217 64.7465 31.4841C64.6393 31.2062 64.2847 30.8557 63.9208 30.6679C63.7899 30.6003 62.8981 30.5023 61.9393 30.4501C59.0986 30.2955 57.0575 29.9183 54.786 29.1281C52.1854 28.2234 49.63 26.7 47.6252 24.8589C47.3004 24.5607 46.8924 24.2431 46.7185 24.1532C46.3788 23.9774 45.7404 23.9475 45.4021 24.0916ZM47.096 28.5111C50.9142 31.462 54.6622 32.92 59.6812 33.4068C60.4915 33.4853 61.245 33.6121 61.3716 33.6911C61.8351 33.9808 61.8485 34.1543 61.7827 39.0313C61.7189 43.7779 61.6356 45.2304 61.2887 47.6502C60.2908 54.6107 57.0639 59.734 51.5058 63.1822C49.7876 64.2481 46.6737 65.6823 46.0774 65.6823C45.6428 65.6823 43.9223 64.9999 42.3869 64.2186C35.4707 60.6989 31.5546 54.8584 30.6077 46.6511C30.5223 45.9107 30.4052 44.3904 30.3473 43.2725C30.2134 40.6809 30.2083 34.5105 30.3398 34.1644C30.5207 33.6887 30.877 33.5604 32.4581 33.4018C37.19 32.9271 40.9666 31.5063 44.4621 28.8858C45.9992 27.7334 46.0757 27.7226 47.096 28.5111ZM51.9149 40.733C51.7143 40.8307 49.8961 42.5676 47.8744 44.593C44.4525 48.0213 44.1736 48.2756 43.8366 48.2756C43.51 48.2756 43.3282 48.1297 41.9758 46.782C40.518 45.3293 39.9963 44.9402 39.5057 44.9402C39.1031 44.9402 38.3873 45.3538 38.1638 45.7156C37.8493 46.2244 37.8931 46.641 38.3301 47.2996C39.4297 48.9566 42.8028 52.1943 43.6515 52.4074C43.7937 52.443 44.105 52.4151 44.3435 52.3453C44.7129 52.2371 45.4474 51.547 49.3227 47.6672C53.1669 43.8186 53.8963 43.0411 54.0488 42.6296C54.2787 42.0096 54.159 41.595 53.5902 41.0393C53.0994 40.56 52.497 40.4498 51.9149 40.733Z" fill="#6B63FF"/>
</svg>
