<svg width="93" height="93" viewBox="0 0 93 93" fill="none" xmlns="http://www.w3.org/2000/svg">
<circle cx="46.5" cy="46.5" r="46.5" fill="#6B63FF" fill-opacity="0.15"/>
<path fill-rule="evenodd" clip-rule="evenodd" d="M46.5 28C56.217 28 64.95 35.6672 64.95 46.9522C66.1595 47.5894 67 48.8433 67 50.2822V55.01C67 56.49 66.1595 57.7439 64.95 58.3811V60.8889C64.95 63.15 63.105 65 60.85 65H44.45V60.8889H60.85V46.2944C60.85 38.3394 54.4335 31.9056 46.5 31.9056C38.5665 31.9056 32.15 38.3394 32.15 46.2944V58.8333H30.1C27.845 58.8333 26 56.9833 26 54.7222V50.6111C26 49.09 26.82 47.7744 28.05 47.0756C28.05 35.5028 36.8855 28 46.5 28ZM42.4 48.5556C42.4 49.6908 41.4821 50.6111 40.35 50.6111C39.2178 50.6111 38.3 49.6908 38.3 48.5556C38.3 47.4203 39.2178 46.5 40.35 46.5C41.4821 46.5 42.4 47.4203 42.4 48.5556ZM52.65 50.6111C53.7822 50.6111 54.7 49.6908 54.7 48.5556C54.7 47.4203 53.7822 46.5 52.65 46.5C51.5179 46.5 50.6 47.4203 50.6 48.5556C50.6 49.6908 51.5179 50.6111 52.65 50.6111ZM54.586 37.1007C56.8184 38.993 58.3111 41.6162 58.7999 44.5061C52.4039 44.4444 46.8894 40.7238 44.2039 35.3177C43.6682 38.0034 42.4782 40.5143 40.7398 42.6268C39.0015 44.7393 36.7688 46.3877 34.2409 47.425C33.7079 39.3261 40.3909 34.1666 46.6024 34.1666C49.5255 34.169 52.3536 35.2084 54.586 37.1007Z" fill="#6B63FF"/>
</svg>
